<svg xmlns="http://www.w3.org/2000/svg" xml:space="preserve" width="1624.464" height="1399.469" style="shape-rendering:geometricPrecision;text-rendering:geometricPrecision;image-rendering:optimizeQuality;fill-rule:evenodd;clip-rule:evenodd" viewBox="0 0 8323.07 7170.3"><defs><style>.str0{stroke:#000;stroke-width:80;stroke-linejoin:bevel;stroke-miterlimit:2.61313}.fil0{fill:currentColor}</style></defs><g id="Layer_x0020_1"><path class="fil0 str0" d="m1306.11 3821.22-7.63 8.42c-31.85 7.63-50.54 18.42-55.54 31.85-5.27 13.69-7.9 65.8-7.9 156.35 0 43.69 2.1 86.86 6.32 129.5-171.62 64.75-327.44 97.13-467.21 97.13-184.25 0-333.23-51.59-446.94-154.51-113.97-103.18-170.83-243.74-170.83-421.68 0-231.63 100.55-396.93 301.38-495.64 92.13-45.27 209-67.91 350.87-67.91 82.39 0 165.56 8.95 250.06 26.85 69.23 15 123.98 31.85 164.25 51.06l6.84 13.69c-13.42 45.27-24.48 123.98-33.16 236.11l-8.42 7.63h-46.33l-7.63-7.63c0-9.74-1.05-30.01-3.16-60.54-2.1-30.53-4.74-52.12-7.63-64.49-22.64-30.8-61.33-56.85-115.82-78.44-58.43-22.64-121.87-33.96-189.78-33.96-181.88 0-307.44 73.44-376.93 220.31-31.85 67.91-47.9 146.61-47.9 236.1 0 142.93 38.17 261.38 114.24 355.61 79.23 97.65 182.15 146.35 309.28 146.35 67.12 0 132.4-14.48 195.04-43.17 3.42-36.06 5.27-85.28 5.27-147.93 0-51.06-1.84-81.86-5.27-92.65-3.16-8.16-12.9-14.21-29.48-17.64-13.69-3.16-57.12-7.11-130.29-11.58l-8.42-7.9v-48.43l8.42-7.63c74.75 1.84 152.67 2.63 234.53 2.11 47.38-.53 117.92-1.32 212.15-2.11l7.63 7.63v37.11zm1180.53 386.14-7.63 7.9c-3.69 0-13.42-.26-29.22-.79-70.54-2.63-114.5-3.95-131.87-3.95-26.32 0-67.91 1.58-125.03 4.74-2.1-12.37-11.85-32.9-29.22-61.86l-191.36-319.28-85.55-130.29c-10.79-15.79-26.06-31.59-45.54-47.12l8.42-26.06c11.85.53 20.53.79 26.32.79 50.27 0 90.02-8.16 118.71-23.95 26.32-14.48 50.54-39.48 72.65-75.54 21.85-36.06 32.9-78.97 32.9-128.71 0-86.86-32.38-145.56-97.13-175.83-30.8-14.48-75.81-21.58-134.77-21.58-25.8 0-50.54 1.84-74.23 6.06-5 50.27-7.63 136.35-7.63 257.69v403.25c0 122.39 3.42 201.89 10 239 2.63 15 11.32 24.48 26.32 28.43 7.63 2.1 37.64 4.74 90.28 7.9l7.63 7.63v51.59l-6.84 7.9c-51.59-3.16-130.82-4.74-237.68-4.74-110.55 0-189.78 1.58-237.42 4.74l-7.63-7.11v-52.38l7.63-7.63c52.38-3.16 82.39-5.79 90.28-7.9 14.74-3.95 23.43-13.43 26.06-28.43 6.85-37.11 10-116.61 10-239v-407.99c0-122.4-3.16-202.15-10-239-2.63-15-11.32-24.48-26.06-28.69-7.9-1.84-37.9-4.48-90.28-7.63l-7.63-7.63v-52.38l7.63-7.11c50.27 3.16 129.5 4.74 237.42 4.74 62.64 0 113.71-.79 152.67-2.37 77.65-3.16 135.82-4.74 174.25-4.74 88.97 0 154.25 8.16 195.83 23.95 56.07 21.58 93.71 58.17 112.66 109.5 9.21 25.27 13.95 55.01 13.95 89.49 0 139.77-78.7 239-235.84 297.7 25.53 43.17 52.91 86.86 81.6 131.08L2290 3954.42c70.02 107.92 116.6 169.51 139.51 184.52 11.84 7.63 28.43 11.32 49.48 11.32l7.63 7.9v49.22zm2490.83-603.03c0 174.25-56.85 318.76-170.3 433.52-55.54 56.07-122.92 99.5-202.15 130.29-84.76 33.43-183.72 48.96-296.91 47.12l-272.17-4.74c-73.96-1.05-135.29.53-183.46 4.74l-7.9-7.9v-21.58l3.95-9.21c37.9-24.22 58.7-39.22 61.59-45.54 4.74-9.21 7.63-43.43 8.69-102.39l2.11-172.93v-390.88c0-122.4-3.16-202.15-10-239-2.63-15-11.32-24.48-26.06-28.69-7.9-1.84-37.9-4.48-90.28-7.63l-7.63-7.63v-52.38l7.63-7.11c54.49 3.16 106.34 4.74 155.82 4.74 119.77 0 227.68-1.58 323.76-4.74 47.9-1.58 95.81-2.37 144.24-2.37 133.72 0 236.11 15.27 307.7 45.54 78.18 33.43 139.24 85.81 183.46 157.4 45.27 73.44 67.91 167.41 67.91 281.38z"/><path class="fil0 str0" d="M4740.84 3641.44q0-213.6-103.44-328.5c-36.06-40.27-81.07-68.44-135.03-84.76-51.33-15.53-123.19-23.16-215.05-23.16-47.9 0-93.71 3.16-137.4 10-5 57.38-7.63 196.89-7.63 417.99l1.58 336.92c.53 75.02 2.63 124.77 6.06 149.51 45.27 7.37 91.6 10.79 138.98 10.79 102.13 0 182.93-14.74 242.16-44.75 63.7-32.38 114.24-87.39 151.88-165.04 38.43-80.02 57.91-173.2 57.91-279.01zm861.25 565.92-7.11 7.9c-51.33-3.16-130.82-4.74-238.21-4.74-106.87 0-186.1 1.58-237.42 4.74l-7.11-7.9v-51.59l7.9-7.63c52.38-3.16 82.39-5.79 90.02-7.9 15-3.95 23.69-13.43 26.32-28.43 6.58-37.11 10-116.61 10-239v-407.99c0-122.4-3.42-202.15-10-239-2.63-15-11.32-24.48-26.32-28.69-7.63-1.84-37.64-4.48-90.02-7.63l-7.9-7.63v-52.38l7.9-7.11c49.22 3.16 128.45 4.74 237.42 4.74 108.45 0 187.41-1.58 236.63-4.74l7.9 7.11v52.38l-7.9 7.63c-52.38 3.16-82.39 5.79-90.02 7.63-15 4.21-23.69 13.69-26.32 28.69-6.58 36.85-10 116.6-10 239v407.99c0 122.39 3.42 201.89 10 239 2.63 15 11.32 24.48 26.32 28.43 7.63 2.1 37.64 4.74 90.02 7.9l7.9 7.63zm1327.14-1025.49-8.69 7.63c-52.38 3.16-82.39 5.79-90.02 7.63-15 4.21-23.69 13.69-26.32 28.69-6.58 36.85-10 116.6-10 239v312.97c0 230.84 3.42 381.4 10 451.16l-10 7.11c-58.17-9.74-102.13-16.85-131.87-20.79-137.66-154.77-372.98-437.21-705.69-846.77v504.33c0 122.39 3.42 201.89 10 239 2.63 15 11.32 24.48 26.32 28.43 7.63 2.1 37.9 4.74 90.28 7.9l7.63 7.63v52.38l-7.63 7.11c-59.23-3.16-114.24-4.74-165.04-4.74-59.22 0-118.45 1.58-178.2 4.74l-7.63-7.11v-52.38l7.63-7.63c52.38-3.16 82.65-5.79 90.28-7.9 15-3.95 23.69-13.43 26.06-28.43 6.84-37.11 10.27-116.61 10.27-239v-407.99c0-122.4-3.42-202.15-10.27-239-2.37-15-11.06-24.48-26.06-28.69-7.63-1.84-37.9-4.48-90.28-7.63l-7.63-7.63v-52.38l7.63-7.11c48.96 3.16 95.28 4.74 139.51 4.74 69.49 0 127.13-1.58 172.93-4.74 185.04 246.9 402.46 511.43 652.25 793.6v-451.15c0-122.4-3.42-202.15-10-239-2.63-15-11.32-24.48-26.06-28.69-7.9-1.84-37.9-4.48-90.28-7.63l-7.9-7.63v-52.38l7.9-7.11q86.07 4.74 164.25 4.74c66.33 0 125.82-1.58 178.72-4.74l7.9 7.11v52.38zm1241.34 1025.49-6.84 7.9c-114.24-3.16-182.94-4.74-206.63-4.74-94.5 0-182.41 1.58-263.75 4.74l-6.84-7.9v-48.43l7.63-8.69 67.12-3.69c28.16-1.58 42.38-11.58 42.38-30.01 0-10.79-7.11-35.01-21.58-72.65l-62.38-162.67c-71.07-1.05-143.45-1.58-217.68-1.58-40.01 0-99.5.52-178.72 1.58l-33.96 93.97c-25.79 71.6-38.69 116.34-38.69 134.24 0 19.48 12.11 31.06 36.32 34.75 13.42 2.1 39.48 4.21 78.7 6.05l7.63 7.9v49.22l-7.63 7.9c-95.02-3.16-156.35-4.74-183.46-4.74-21.06 0-73.44 1.58-156.61 4.74l-7.63-7.11v-50.01l8.42-7.9c52.91-2.9 85.55-13.42 97.39-31.59 12.11-17.9 57.64-125.03 136.35-321.39l201.1-503.54c15-39.22 37.64-97.92 67.91-176.62h109.5l408.78 961.54c15.79 36.59 30.27 57.12 43.17 61.59 16.85 6.32 41.33 9.48 73.18 9.48l6.84 8.42v49.22z"/><path class="fil0 str0" d="m7681.77 3792.53-165.04-404.04-157.93 404.04q63.165 2.37 164.25 2.37c65.28 0 118.18-.79 158.72-2.37zm-3982.22 414.83-6.84 7.9c-114.24-3.16-182.94-4.74-206.63-4.74-94.5 0-182.41 1.58-263.75 4.74l-6.84-7.9v-48.43l7.63-8.69 67.12-3.69c28.16-1.58 42.38-11.58 42.38-30.01 0-10.79-7.11-35.01-21.58-72.65l-62.38-162.67c-71.07-1.05-143.45-1.58-217.68-1.58-40.01 0-99.5.52-178.72 1.58l-33.96 93.97c-25.79 71.6-38.69 116.34-38.69 134.24 0 19.48 12.11 31.06 36.32 34.75 13.42 2.1 39.48 4.21 78.7 6.05l7.63 7.9v49.22l-7.63 7.9c-95.02-3.16-156.35-4.74-183.46-4.74-21.06 0-73.44 1.58-156.61 4.74l-7.63-7.11v-50.01l8.42-7.9c52.91-2.9 85.55-13.42 97.39-31.59 12.11-17.9 57.64-125.03 136.35-321.39l201.1-503.54c15-39.22 37.64-97.92 67.91-176.62h109.5l408.78 961.54c15.79 36.59 30.27 57.12 43.17 61.59 16.85 6.32 41.33 9.48 73.18 9.48l6.84 8.42v49.22z"/><path class="fil0 str0" d="m3210.75 3792.53-165.04-404.04-157.93 404.04q63.165 2.37 164.25 2.37c65.28 0 118.18-.79 158.72-2.37zm132.14-1044.97c-3.69 171.88-80.02 257.69-229 257.69-149.51 0-226.1-85.81-229.79-257.69l7.63-7.63h46.33c10.27 86.86 68.96 130.29 175.83 130.29s165.56-43.43 175.83-130.29h46.33z"/><path class="fil0 str0" d="M.87 2904.35h551.7C870.63 1250.43 2325.26.87 4071.99.87c1746.74 0 3201.37 1249.56 3519.42 2903.48h730.78v1496.77h-759.28c-369.33 1586.39-1792.06 2768.31-3490.92 2768.31S950.4 5987.51 581.07 4401.12H.86V2904.35z"/><path class="fil0 str0" d="M2533.69 1709.83c-21.16 18.14-48.37 48.37-48.37 78.6 0 32.24 27.21 52.4 56.43 48.37 126.96-19.15 386.93-277.1 379.88-413.13-3.02-63.48-42.32-95.73-102.78-95.73-119.91 0-331.51 161.22-417.16 242.84-103.79 97.74-227.73 256.95-227.73 405.07 0 115.88 80.61 185.4 192.46 185.4 94.72 0 261.99-60.46 458.48-249.89 38.29-36.27 54.41-50.38 51.39-101.77-95.73 84.64-317.41 249.89-444.37 249.89-72.55 0-106.81-42.32-106.81-113.86 0-76.58 51.39-188.43 121.92-271.05 225.71-264 340.58-268.03 358.72-273.07 16.12-4.03 27.21 3.02 27.21 20.15 0 33.25-63.48 123.94-161.22 208.58l-2.01-2.02c5.04-16.12 0-23.18-10.08-23.18-11.08 0-44.34 32.24-51.39 39.3l-74.56 65.5zm681.16 40.64 2.02 2.02c-199.51 202.2-230.75 199.18-250.9 203.21-15.12 3.02-19.15-15.12-20.15-20.15 0-49.54 29.22-111.18 269.04-185.07z"/><path class="fil0 str0" d="m3160.43 1887.01 2.02 2.02c-13.1 26.37-37.28 79.77-37.28 112.02 0 29.22 15.12 53.41 48.37 53.41 49.37 0 184.4-107.82 227.73-157.19l-8.06-37.28c-43.33 29.22-100.76 80.61-143.09 80.61-16.12 0-31.24-7.05-31.24-24.18 0-47.36 87.66-117.89 87.66-150.14 0-22.17-10.08-33.25-29.22-41.31 9.07-3.02 35.27-13.1 35.27-25.19s-19.15-49.37-65.5-48.37c-116.89 3.02-378.87 132-374.84 257.96 2.02 53.4 60.46 119.91 88.67 119.91 23.18 0 87.66-52.4 106.81-67.51l92.7-74.73zm771.23-105.13 2.02 2.01c-25.19 40.81-74.57 112.35-74.57 162.73 0 29.22 21.16 58.44 51.39 58.44 56.43 0 201.53-118.9 248.89-156.18l-6.05-47.36c-123.94 84.64-135.02 84.64-156.18 89.68-12.09 3.02-25.19-13.1-24.18-25.19 1.01-23.18 7.05-39.3 85.65-125.96 11.08-12.09 31.24-34.26 31.24-51.39 0-14.11-11.08-29.22-18.14-40.31-3.02-4.03-13.1-28.21-21.16-28.21-12.09 0-37.28 20.15-47.36 28.21l-223.7 176.34-2.02-2.01c22.17-39.3 93.71-120.92 93.71-165.25 0-26.2-14.11-46.35-41.31-46.35-65.5 0-244.86 179.36-294.23 230.75-3.02 3.02-15.11 16.12-20.15 16.12-4.03 0-7.05-7.05-7.05-9.07 0-21.16 18.14-37.28 29.22-52.4 15.11-22.17 37.28-40.31 55.42-61.47 12.09-14.11 40.31-44.34 40.31-64.49 0-21.16-30.23-21.16-45.34-23.18-60.46-8.06-167.27 126.96-168.28 225.71 0 37.11 14.11 115.88 62.47 115.88 18.14 0 32.24-15.28 43.33-28.38 47.36-58.61 103.79-119.07 156.18-174.66 7.05-7.05 29.22-31.4 39.3-31.4 4.03 0 7.05 3.02 7.05 7.05 0 3.19-4.03 11.25-6.05 13.27-65.5 99.25-89.68 145.6-88.67 174.82 1.01 24.18 20.15 42.32 44.34 42.32 34.26 0 70.53-41.31 93.71-63.48l160.21-146.61zm501.3 55.65c-27.21-9.07-55.42-12.09-84.64-10.08 27.21-36.28 55.42-70.53 92.7-97.74 13.1-9.07 61.47-40.31 77.59-40.31 8.06 0 11.08 7.05 11.08 14.11 0 18.14-14.11 35.27-25.19 49.37l-71.54 84.64z"/><path class="fil0 str0" d="M4279.79 1924.19c13.1 3.02 26.2 6.05 40.31 6.05 16.12 0 31.24-3.02 46.35-6.05 24.18 12.09 44.34 20.15 71.54 20.15 108.82 0 199.51-72.55 274.08-145.1l-7.05-46.35c-107.82 92.7-127.97 108.83-214.63 102.78 112.86-99.76 163.24-169.28 163.24-224.7 0-26.2-15.11-47.36-42.32-47.36-54.41 0-156.18 66.5-199.51 97.74l-2.02-2.01c20.15-45.34 51.39-82.63 85.65-118.9 16.12-17.13 68.52-65.5 68.52-87.66 0-19.15-32.24-24.18-46.35-24.18-38.29 0-56.43 29.22-80.61 55.42l-267.02 287.18 4.03 47.36 159.21-152.15 2.01 2.02c-65.5 110.84-115.88 193.47-162.23 258.96-41.31 58.44-63.48 108.83-62.47 159.21 0 18.14 6.05 45.34 29.22 45.34 19.15 0 37.28-27.21 45.34-42.32l94.72-185.41zm732.3-166.81c-40.31 29.22-92.7 82.63-146.11 82.63-46.35 0-61.47-22.17-53.4-63.48 42.32-29.22 142.08-118.9 142.08-169.28 0-22.17-27.21-28.21-44.34-28.21-60.46 0-186.41 119.91-186.41 242.84 0 51.39 27.21 119.91 86.66 119.91 76.58 0 165.25-90.69 210.6-146.11l-9.07-38.29zm-47.36-198.5c43.33 0 80.61-49.37 80.61-89.68 0-18.14-15.11-31.24-33.25-31.24-39.3 0-87.66 36.27-87.66 77.59 0 24.18 16.12 43.33 40.3 43.33zm485.51 207.67c-18.14 15.11-62.47 50.38-86.66 50.38-10.08 0-18.14-9.07-18.14-18.14 0-69.53 123.94-146.11 123.94-185.41-3.02-21.16-9.07-39.3-15.11-54.41-6.05-14.11-12.09-19.14-16.12-19.14-29.22 0-214.63 123.94-295.24 226.72-4.03 5.04-13.1 14.11-20.15 14.11-6.05 0-11.08-5.04-11.08-11.08 0-24.18 126.96-125.96 126.96-165.25 0-6.05 5.04-20.15-55.42-22.17-17.13 0-26.2 1.01-39.3 12.09-58.44 49.37-121.92 151.15-118.9 220.67 1.01 34.26 12.09 97.74 56.43 97.74 27.21 0 64.49-49.37 79.6-68.52 45.34-58.44 96.73-110.84 155.18-154.17l2.02 2.02c-32.24 46.35-86.66 112.86-86.66 173.31 0 34.26 18.14 66.5 56.43 66.5 73.56 0 177.34-123.94 230.75-171.3l-8.06-44.34-60.46 50.38zm276.57 144.73c-55.42 40.31-208.58 167.27-208.58 239.82 0 13.1 9.07 24.18 23.18 24.18 39.3 0 127.97-64.49 233.77-232.76l212.61-159.21-5.04-42.32-153.16 109.83-2.02-2.01 75.57-141.07c7.05-13.1 21.16-36.27 21.16-51.39 0-17.13-18.14-51.39-38.29-51.39-16.12 0-28.21 17.13-38.29 28.21l-107.82 118.9c-38.29 41.31-99.76 65.5-127.97 62.47-9.07 0-15.11-2.02-16.12-10.08-9.07-73.56 65.5-101.77 128.98-136.03l114.87-62.47c13.1-9.07 33.25-23.18 33.25-41.31 0-22.17-39.3-26.2-53.41-25.19-77.59 7.05-297.25 113.86-297.25 245.86 0 44.34 19.15 117.89 75.57 117.89 55.42 0 161.22-91.69 197.5-132l2.02 2.02-70.54 138.05zM2829.38 5488.57c1.01 19.14 11.08 44.34 34.26 44.34 27.21 0 106.81-77.59 106.81-133.01 0-30.23-14.11-46.35-45.34-46.35-56.43 0-153.16 54.41-198.5 88.67-65.5 49.37-95.73 80.61-95.73 165.25 0 74.57 37.28 147.12 114.87 147.12 95.72 0 208.58-99.76 270.05-165.25l-12.09-39.3c-58.44 45.34-146.11 115.88-222.69 115.88-52.4 0-76.58-31.24-76.58-54.41 0-28.21 18.14-43.33 40.31-59.45l84.64-63.48zm395.81 74.56c-47.36 42.32-102.78 71.54-120.92 71.54-7.05 0-8.06-10.08-8.06-15.11 0-42.32 24.18-64.49 55.42-86.66 39.3-28.21 45.34-37.28 76.58-72.55 11.08-9.07 38.29-37.28 40.31-53.4 4.03-30.23-47.36-21.16-61.47-21.16-17.13 0-30.23 2.01-44.34 11.08-64.49 42.32-140.06 143.09-140.06 240.83 0 43.33 27.21 99.76 76.58 99.76 55.42 0 122.93-90.69 162.23-124.95l2.01 2.01c-10.08 26.2-21.16 54.41-21.16 84.64 0 35.27 22.17 66.5 59.45 66.5 74.56 0 181.37-115.88 232.76-165.25l-6.05-43.33c-30.23 24.18-116.89 94.72-155.18 94.72-16.12 0-25.19-6.05-25.19-22.17 0-45.34 71.54-124.95 103.79-154.17 16.12-14.11 43.33-37.28 41.31-61.47-4.03-52.4-15.11-55.42-23.17-55.42-25.19 0-123.94 95.73-145.1 114.87l-99.76 89.68zm616.87 346.63c-15.12-29.22-24.18-57.44-20.15-89.68 4.03-33.25 20.15-69.53 46.35-113.86 24.18 9.07 40.31 10.08 72.55 8.06 9.07 75.57-36.28 154.17-98.75 195.48z"/><path class="fil0 str0" d="M4408.36 5562.12c-40.31 36.28-117.89 100.76-173.31 100.76-27.21 0-41.31-20.15-50.38-43.33-5.04-24.18-2.02-52.4 7.05-69.53 218.66-211.6 244.86-300.28 251.91-396 1.01-13.1-3.02-37.28-20.15-37.28-32.24 0-127.97 93.71-216.64 203.54-57.44 71.54-99.76 170.29-110.84 264l-98.75 62.47c-13.1-29.22-23.18-62.47-52.4-79.6l188.43-262.99c22.17-31.24 52.4-101.77 52.4-141.07 0-16.12-2.02-44.34-24.18-44.34-51.39 0-181.38 239.82-207.57 289.19-31.24 57.44-63.48 104.79-122.93 137.04-29.22 16.12-56.43 27.21-56.43 67.51 0 25.19 13.1 40.3 29.22 57.43-27.21 57.44-70.53 137.04-70.53 202.54 0 33.25 13.1 126.96 59.45 119.91 73.56-11.08 214.63-121.92 222.69-241.83 1.01-18.14 3.02-36.27-1.01-55.42 31.24-15.11 58.44-35.27 81.62-55.42 4.03 54.41 23.18 111.85 89.68 111.85 86.66 0 181.37-101.77 236.79-159.21l-14.11-30.23z"/><path class="fil0 str0" d="m4214.89 5457.33-2.02-2.02c37.28-80.61 82.63-162.23 152.15-218.66l2.01 2.02 1.01-1.01c-20.15 58.44-82.63 154.17-153.16 219.66zm570.58 146.11c-15.71 5.22-33.64 6.05-39.89-2.01 19.15-39.3 39.3-74.57 39.3-118.9 0-30.23-6.05-51.39-36.28-59.45 11.08-6.05 23.18-12.09 23.18-27.21 0-27.21-33.25-37.28-55.42-36.28-61.47 3.02-134.02 30.23-188.43 74.57-56.43 43.33-93.71 93.71-91.69 169.28 4.03 91.7 52.4 144.09 104.79 144.09 63.48 0 112.86-32.24 155.18-75.57 45.53 0 86.33 1.58 88.29-17.35l.97-51.18z"/><path class="fil0 str0" d="M4663.96 5469.42c4.03 2.02-43.33 65.5-43.33 117.89 0 17.13 5.04 30.23 12.09 46.35-23.17 21.16-44.34 40.31-77.59 40.31-25.19 0-44.34-9.07-44.34-38.29 0-31.24 19.14-70.54 41.31-92.7 30.23-29.22 77.59-53.41 111.85-73.56zm351.25 30.23 2.02 2.01c-40.31 48.37-92.7 101.77-92.7 170.29 0 38.29 26.2 77.59 68.52 77.59 57.44 0 173.31-111.85 211.6-155.18l-7.05-37.28c-33.25 25.19-96.73 90.69-140.06 90.69-15.11 0-31.24-12.09-31.24-28.21 0-40.31 49.37-89.68 78.6-114.87 23.18-19.14 42.32-34.26 42.32-65.5-2.02-18.14-9.07-34.26-24.18-53.4-10.08-12.09-65.5 0-160.22 13.1 4.03-9.07 7.05-18.14 7.05-28.21 0-9.07-8.06-17.13-18.14-17.13-24.18 0-126.96 72.55-126.96 145.1 0 21.16 6.05 29.22 27.21 31.24-19.14 27.21-40.31 52.4-66.5 73.56l4.03 58.32c43.33-15.87 85.65-83.51 120.92-138.93l104.79-23.18zm493.55 72.55c-40.31 29.22-92.7 82.63-146.11 82.63-46.35 0-61.47-22.17-53.4-63.48 42.32-29.22 142.08-118.9 142.08-169.28 0-22.17-27.21-28.21-44.34-28.21-60.46 0-186.41 119.91-186.41 242.84 0 51.39 27.21 119.91 86.66 119.91 76.58 0 165.25-90.69 210.6-146.11l-9.07-38.29zm-47.36-198.5c43.33 0 80.61-49.37 80.61-89.68 0-18.14-15.11-31.24-33.25-31.24-39.3 0-87.66 36.27-87.66 77.59 0 24.18 16.12 43.33 40.3 43.33z"/></g></svg>